{
  "accessors": [
    {
      "bufferView": 1,
      "componentType": 5126,
      "count": 3372,
      "max": [
        1.5715123414993286,
        1.833090901374817,
        0.3461132049560547
      ],
      "min": [
        -1.5709335803985596,
        -0.18785524368286133,
        -0.46168947219848633
      ],
      "type": "VEC3"
    },
    {
      "bufferView": 1,
      "byteOffset": 40464,
      "componentType": 5126,
      "count": 3372,
      "max": [
        1.0,
        1.0,
        0.9999802112579346
      ],
      "min": [
        -1.0,
        -1.0,
        -0.9999997019767761
      ],
      "type": "VEC3"
    },
    {
      "bufferView": 0,
      "componentType": 5125,
      "count": 5154,
      "type": "SCALAR"
    },
    {
      "bufferView": 1,
      "byteOffset": 80928,
      "componentType": 5126,
      "count": 748,
      "max": [
        1.0098637342453003,
        -0.017409324645996094,
        0.3212113380432129
      ],
      "min": [
        -1.0092836618423462,
        -0.17268431186676025,
        -0.43669819831848145
      ],
      "type": "VEC3"
    },
    {
      "bufferView": 1,
      "byteOffset": 89904,
      "componentType": 5126,
      "count": 748,
      "max": [
        0.8117440938949585,
        0.9998533725738525,
        0.7060281038284302
      ],
      "min": [
        -0.759528636932373,
        -0.9999133348464966,
        -0.7188752293586731
      ],
      "type": "VEC3"
    },
    {
      "bufferView": 0,
      "byteOffset": 20616,
      "componentType": 5125,
      "count": 3702,
      "type": "SCALAR"
    }
  ],
  "asset": {
    "extras": {
      "author": "wewwuworks (https://sketchfab.com/Ensign_Crusher)",
      "license": "CC-BY-4.0 (http://creativecommons.org/licenses/by/4.0/)",
      "source": "https://sketchfab.com/3d-models/hat-aviators-1f2348e1ac184a2bb79b4c2f0c4ad48b",
      "title": "Hat Aviators"
    },
    "generator": "Sketchfab-12.65.0",
    "version": "2.0"
  },
  "bufferViews": [
    {
      "buffer": 0,
      "byteLength": 35424,
      "name": "floatBufferViews",
      "target": 34963
    },
    {
      "buffer": 0,
      "byteLength": 98880,
      "byteOffset": 35424,
      "byteStride": 12,
      "name": "floatBufferViews",
      "target": 34962
    }
  ],
  "buffers": [
    {
      "byteLength": 134304,
      "uri": "scene.bin"
    }
  ],
  "materials": [
    {
      "doubleSided": true,
      "name": "Plastic.001",
      "pbrMetallicRoughness": {
        "baseColorFactor": [
          0.0607194,
          0.0607194,
          0.0607194,
          1.0
        ],
        "metallicFactor": 0.0,
        "roughnessFactor": 0.8239417257461427
      }
    },
    {
      "doubleSided": true,
      "name": "Glass.001",
      "pbrMetallicRoughness": {
        "baseColorFactor": [
          0.0189906,
          0.0612849,
          0.0699779,
          1.0
        ],
        "metallicFactor": 0.0,
        "roughnessFactor": 0.8239417257461427
      }
    }
  ],
  "meshes": [
    {
      "name": "Aviators_Plastic.001_0",
      "primitives": [
        {
          "attributes": {
            "NORMAL": 1,
            "POSITION": 0
          },
          "indices": 2,
          "material": 0,
          "mode": 4
        }
      ]
    },
    {
      "name": "Aviators_Glass.001_0",
      "primitives": [
        {
          "attributes": {
            "NORMAL": 4,
            "POSITION": 3
          },
          "indices": 5,
          "material": 1,
          "mode": 4
        }
      ]
    }
  ],
  "nodes": [
    {
      "children": [
        1
      ],
      "matrix": [
        1.0,
        0.0,
        0.0,
        0.0,
        0.0,
        2.220446049250313e-16,
        -1.0,
        0.0,
        0.0,
        1.0,
        2.220446049250313e-16,
        0.0,
        0.0,
        0.0,
        0.0,
        1.0
      ],
      "name": "Sketchfab_model"
    },
    {
      "children": [
        2
      ],
      "matrix": [
        1.0,
        0.0,
        0.0,
        0.0,
        0.0,
        0.0,
        1.0,
        0.0,
        0.0,
        -1.0,
        0.0,
        0.0,
        0.0,
        0.0,
        0.0,
        1.0
      ],
      "name": "21f11a45b0a141c2bbdf943a3161d925.fbx"
    },
    {
      "children": [
        3
      ],
      "name": "RootNode"
    },
    {
      "children": [
        4,
        5
      ],
      "matrix": [
        100.0,
        0.0,
        0.0,
        0.0,
        0.0,
        -1.629206793918314e-05,
        -99.99999999999868,
        0.0,
        0.0,
        99.99999999999868,
        -1.629206793918314e-05,
        0.0,
        0.0,
        -2.384185791015625e-05,
        0.0,
        1.0
      ],
      "name": "Aviators"
    },
    {
      "mesh": 0,
      "name": "Aviators_Plastic.001_0"
    },
    {
      "mesh": 1,
      "name": "Aviators_Glass.001_0"
    }
  ],
  "scene": 0,
  "scenes": [
    {
      "name": "Sketchfab_Scene",
      "nodes": [
        0
      ]
    }
  ]
}
